{"glyphs":{"0":{"ha":1297,"x_min":153,"x_max":1143,"o":"m 456 1138 l 841 1138 q 1143 859 1143 1074 l 1143 354 q 841 77 1143 134 l 456 77 q 153 354 153 134 l 153 859 q 456 1138 153 1074 l 456 1138 m 623 195 l 646 191 l 650 191 q 806 369 806 206 l 806 757 l 525 252 q 559 220 540 233 q 601 199 578 206 l 602 199 l 623 195 l 623 195 m 654 1008 l 639 1008 q 488 845 488 1004 l 488 460 l 757 972 q 714 998 738 989 q 663 1008 690 1008 q 658 1008 661 1008 q 652 1008 655 1008 l 654 1008 l 654 1008 z "},"1":{"ha":1297,"x_min":396,"x_max":901,"o":"m 557 27 l 557 944 l 396 944 l 396 1065 l 730 1188 l 901 1188 l 901 27 l 557 27 z "},"2":{"ha":1297,"x_min":160,"x_max":1137,"o":"m 811 1020 l 648 1020 q 646 1020 647 1020 q 644 1020 646 1020 q 585 1010 613 1020 q 533 985 556 1001 l 533 985 q 499 951 513 972 q 486 902 486 929 l 486 902 l 486 842 q 800 526 486 720 l 822 513 q 943 426 886 473 q 1043 336 1000 380 q 1111 255 1086 292 q 1137 195 1137 217 l 1137 77 l 160 77 l 160 195 l 811 195 l 811 206 q 496 513 811 317 l 475 526 q 338 618 396 575 q 241 703 279 663 q 186 777 203 742 q 167 842 167 812 l 167 865 q 193 974 167 924 q 262 1057 218 1024 l 263 1057 q 361 1116 305 1095 q 477 1138 416 1138 q 481 1138 480 1138 q 486 1138 483 1138 l 486 1138 l 811 1138 q 1137 902 1099 1138 l 974 902 q 811 1020 962 1020 l 811 1020 z "},"3":{"ha":1297,"x_min":156,"x_max":1141,"o":"m 156 195 l 811 195 l 316 434 l 316 559 l 648 559 q 652 559 650 559 q 659 559 655 559 q 713 570 688 559 q 757 600 738 581 l 757 600 q 780 628 770 612 q 793 663 789 644 l 793 663 l 793 902 q 793 906 793 903 q 793 910 793 909 q 784 950 793 932 q 760 979 774 968 l 758 981 q 713 1000 738 993 q 661 1006 688 1006 q 653 1006 656 1006 q 647 1006 650 1006 l 648 1006 l 507 1006 q 374 966 406 1006 q 320 902 343 926 l 156 902 q 483 1138 193 1138 l 812 1138 q 817 1138 814 1138 q 822 1138 819 1138 q 940 1120 883 1138 q 1044 1067 997 1101 l 1043 1069 q 1112 998 1085 1042 q 1139 902 1138 955 l 1139 902 l 1139 666 q 1110 576 1135 617 q 1047 509 1085 536 l 1047 509 q 945 452 1001 472 q 825 431 888 431 q 819 431 822 431 q 811 431 815 431 l 812 431 l 648 431 l 1139 195 l 1141 77 l 156 77 l 156 195 z "},"4":{"ha":1297,"x_min":157,"x_max":1139,"o":"m 161 480 l 161 609 l 793 1184 l 1139 1184 l 1139 31 l 157 31 l 157 138 l 802 138 l 802 480 l 161 480 l 161 480 m 328 606 l 798 606 l 798 1036 l 328 606 z "},"5":{"ha":1297,"x_min":160,"x_max":1137,"o":"m 1137 666 l 648 666 q 646 666 647 666 q 643 666 644 666 q 584 657 612 666 q 533 632 556 648 l 533 632 q 498 597 511 618 q 486 549 486 575 l 486 549 l 486 313 q 498 264 486 286 q 533 231 511 243 l 533 231 q 584 205 556 214 q 643 195 612 195 q 646 195 644 195 q 648 195 647 195 l 648 195 l 811 195 q 974 313 962 195 l 1137 313 q 811 77 1099 77 l 486 77 q 480 77 483 77 q 476 77 477 77 q 357 96 414 77 q 255 148 301 115 l 256 146 q 188 217 214 174 q 160 313 161 260 l 160 313 l 160 549 q 187 645 161 601 q 255 715 213 689 l 256 715 q 357 766 301 747 q 475 784 414 784 q 480 784 477 784 q 486 784 483 784 l 486 784 l 811 784 l 811 1020 l 161 1020 l 160 1138 l 1137 1138 l 1137 666 z "},"7":{"ha":1297,"x_min":159,"x_max":1138,"o":"m 902 528 l 857 438 l 817 349 l 817 80 l 479 80 l 479 354 q 804 886 479 450 l 804 1013 l 159 1013 l 159 1135 l 1138 1135 l 1138 886 q 1013 720 1072 807 q 906 537 955 632 l 902 528 z "},"8":{"ha":1297,"x_min":153,"x_max":1143,"o":"m 458 1138 l 841 1138 q 1143 860 1143 1076 q 1143 857 1143 859 q 1143 854 1143 856 q 1103 726 1143 783 q 998 647 1062 670 l 997 647 q 926 620 964 629 q 848 608 888 610 l 846 608 l 920 595 l 997 570 q 1103 489 1062 545 q 1143 361 1143 433 q 1143 358 1143 359 q 1143 355 1143 357 l 1143 355 q 841 76 1143 140 l 458 76 q 153 355 153 140 q 153 357 153 357 q 153 358 153 358 q 195 488 153 431 q 300 568 236 545 l 301 570 q 372 595 334 586 q 450 608 410 605 l 452 608 q 372 621 411 610 q 298 647 334 631 l 301 647 q 195 727 236 670 q 153 857 153 784 q 153 858 153 857 q 153 860 153 859 l 153 860 q 458 1139 153 1076 l 458 1138 m 654 543 l 639 543 q 488 378 488 538 q 646 199 488 213 l 650 199 q 806 378 806 213 q 654 543 806 541 l 654 543 m 654 1010 l 639 1010 q 488 846 488 1006 q 646 667 488 685 l 650 667 q 806 846 806 685 q 654 1010 806 1008 l 654 1010 z "},"9":{"ha":1297,"x_min":153,"x_max":1142,"o":"m 454 1135 l 840 1135 q 1142 857 1142 1073 l 1142 688 q 1142 687 1142 688 q 1142 685 1142 686 q 1101 554 1142 612 q 996 473 1061 496 l 994 472 q 923 447 962 457 q 844 435 884 437 l 844 435 l 591 435 q 495 505 547 435 q 493 487 494 496 q 492 468 492 477 q 530 337 492 396 q 628 247 568 278 l 629 247 q 739 207 681 221 q 861 193 798 193 q 873 193 867 193 q 886 194 879 194 l 884 194 l 930 195 l 974 198 l 974 80 l 673 80 q 243 271 393 80 q 191 358 213 311 q 155 456 168 406 l 153 460 l 153 857 q 454 1135 153 1073 l 454 1135 m 652 1009 l 637 1009 q 486 842 486 1008 l 487 723 q 487 715 487 719 q 487 709 487 712 q 508 627 487 665 q 564 568 529 590 l 564 568 q 600 551 581 557 q 642 544 620 544 l 642 544 l 648 544 q 803 723 807 560 l 803 842 q 804 851 803 846 q 804 860 804 856 q 783 936 804 902 q 728 989 762 970 l 727 989 l 652 1009 z "},"�":{"ha":1389,"x_min":0,"x_max":0,"o":""},"\u0000":{"ha":0,"x_min":0,"x_max":0,"o":"m 0 0 l 0 0 l 0 0 l 0 0 z "},"\u0001":{"ha":0,"x_min":0,"x_max":0,"o":"m 0 0 l 0 0 l 0 0 l 0 0 z "}," ":{"ha":694,"x_min":0,"x_max":0,"o":"m 0 0 l 0 0 l 0 0 l 0 0 z "},"\"":{"ha":1297,"x_min":326,"x_max":971,"o":"m 549 361 l 326 361 l 399 853 l 623 853 l 549 361 m 898 362 l 671 362 l 747 853 l 971 853 l 898 362 z "},"*":{"ha":1297,"x_min":270,"x_max":1021,"o":"m 559 940 l 732 940 l 732 278 l 559 278 l 559 940 m 819 595 l 1021 503 l 968 387 l 765 477 l 819 595 m 270 720 l 320 840 l 522 749 l 472 629 l 270 720 m 472 595 l 524 477 l 323 387 l 270 503 l 472 595 m 968 842 l 1021 720 l 819 629 l 768 751 l 968 842 z "},"+":{"ha":1297,"x_min":309,"x_max":987,"o":"m 987 700 l 739 700 l 739 937 l 557 937 l 557 700 l 309 700 l 309 515 l 557 515 l 557 278 l 739 278 l 739 515 l 987 515 l 987 700 l 987 700 z "},":":{"ha":1297,"x_min":480,"x_max":817,"o":"m 817 193 l 480 193 l 480 434 l 817 434 l 817 193 m 480 783 l 480 1023 l 817 1023 l 817 783 l 480 783 z "},"<":{"ha":1297,"x_min":255,"x_max":1040,"o":"m 555 606 l 1040 273 l 755 273 l 255 606 l 755 943 l 1040 943 l 555 606 z "},">":{"ha":1297,"x_min":256,"x_max":1040,"o":"m 743 605 l 256 941 l 541 941 l 1040 605 l 541 274 l 256 274 l 743 605 z "},"z":{"ha":1297,"x_min":155,"x_max":1142,"o":"m 155 1135 l 1067 1135 l 1067 895 l 491 267 l 491 197 l 1142 197 l 1142 80 l 155 80 l 155 317 l 731 945 l 731 1019 l 155 1019 l 155 1135 z "},"|":{"ha":1297,"x_min":560,"x_max":735,"o":"m 735 1150 l 560 1150 l 560 65 l 735 65 l 735 1150 z "},"¦":{"ha":1297,"x_min":563,"x_max":734,"o":"m 734 84 l 563 84 l 563 552 l 734 552 l 734 84 m 563 723 l 563 1131 l 734 1131 l 734 723 l 563 723 z "},"©":{"ha":1389,"x_min":183,"x_max":1108,"o":"m 1093 1131 l 1093 1115 l 1108 1115 l 1108 1085 l 1093 1085 l 1093 1070 l 1077 1070 l 1077 1070 l 1077 1024 l 1047 1024 l 1047 994 l 1032 994 l 1032 947 l 1047 947 l 1047 930 l 1032 930 l 1032 901 l 1047 901 l 1047 871 l 1032 871 l 1032 854 l 1017 854 l 1017 840 l 939 840 l 939 825 l 924 825 l 924 810 l 892 810 l 892 795 l 863 795 l 863 779 l 833 779 l 833 764 l 787 764 l 787 749 l 708 749 l 708 686 l 833 686 l 833 701 l 863 701 l 863 686 l 848 686 l 848 670 l 787 670 l 787 655 l 772 655 l 772 625 l 757 625 l 757 594 l 726 594 l 726 564 l 735 564 l 746 564 l 757 564 l 757 549 l 711 549 l 711 534 l 726 534 l 726 503 l 696 503 l 696 488 l 711 488 l 711 473 l 726 473 l 726 410 l 696 410 l 665 410 l 665 395 l 711 395 l 711 365 l 696 365 l 696 334 l 681 334 l 681 304 l 711 304 l 711 289 l 726 289 l 726 274 l 741 274 l 741 258 l 757 258 l 757 243 l 787 243 l 787 235 l 787 225 l 772 225 l 772 210 l 741 210 l 741 195 l 757 195 l 757 87 l 693 87 l 693 165 l 685 165 l 678 165 l 678 87 l 585 87 l 585 102 l 578 102 l 570 102 l 570 133 l 600 133 l 600 148 l 570 148 l 570 178 l 600 178 l 600 209 l 585 209 l 585 193 l 555 193 l 555 209 l 540 209 l 540 224 l 570 224 l 570 269 l 585 269 l 585 285 l 600 285 l 600 300 l 570 300 l 570 330 l 585 330 l 585 345 l 600 345 l 600 361 l 570 361 l 570 406 l 555 406 l 555 437 l 600 437 l 600 467 l 585 467 l 585 481 l 600 481 l 600 496 l 600 496 l 555 496 l 555 528 l 570 528 l 570 543 l 600 543 l 600 557 l 570 557 l 570 589 l 570 618 l 540 618 l 540 633 l 524 633 l 524 648 l 509 648 l 509 665 l 446 665 l 446 680 l 431 680 l 431 694 l 461 694 l 461 680 l 616 680 l 616 694 l 600 694 l 600 709 l 585 709 l 585 724 l 555 724 l 555 741 l 491 741 l 491 755 l 461 755 l 461 770 l 431 770 l 431 785 l 415 785 l 415 800 l 400 800 l 400 817 l 389 817 l 378 817 l 368 817 l 368 831 l 353 831 l 353 846 l 338 846 l 338 861 l 323 861 l 323 876 l 307 876 l 307 907 l 277 907 l 277 937 l 269 937 l 259 937 l 259 968 l 244 968 l 244 998 l 229 998 l 229 1013 l 214 1013 l 214 1044 l 198 1044 l 198 1074 l 183 1074 l 183 1104 l 214 1104 l 214 1059 l 229 1059 l 229 1044 l 244 1044 l 244 1028 l 259 1028 l 259 1013 l 274 1013 l 274 998 l 290 998 l 290 983 l 290 983 l 320 983 l 320 968 l 335 968 l 335 952 l 320 952 l 320 944 l 320 936 l 350 936 l 350 951 l 366 951 l 366 936 l 396 936 l 396 920 l 381 920 l 381 905 l 411 905 l 411 920 l 426 920 l 426 890 l 442 890 l 442 875 l 472 875 l 472 890 l 487 890 l 487 875 l 496 875 l 505 875 l 505 890 l 519 890 l 519 860 l 534 860 l 534 875 l 566 875 l 566 890 l 581 890 l 581 875 l 610 875 l 610 890 q 651 891 616 891 q 704 890 686 891 l 704 875 l 719 875 l 719 890 l 750 890 l 750 875 l 765 875 l 765 865 l 765 857 l 780 857 l 780 887 l 811 887 l 811 872 l 826 872 l 826 887 l 856 887 l 856 903 l 887 903 l 887 918 l 871 918 l 871 926 l 871 936 l 917 936 l 917 951 l 932 951 l 932 936 l 947 936 l 947 1013 l 978 1013 l 978 1044 l 993 1044 l 993 1028 l 1023 1028 l 1023 1044 l 1039 1044 l 1039 1074 l 1054 1074 l 1054 1089 l 1069 1089 l 1069 1120 q 1093 1131 1084 1131 z "},"╌":{"ha":1297,"x_min":95,"x_max":1202,"o":"m 1202 524 l 751 524 l 751 690 l 1202 690 l 1202 524 m 95 525 l 95 690 l 544 690 l 544 525 l 95 525 z "},"▪":{"ha":1297,"x_min":487,"x_max":810,"o":"m 810 496 l 810 719 l 487 719 l 487 496 l 810 496 z "},"ア":{"ha":1297,"x_min":161,"x_max":1135,"o":"m 488 396 q 323 442 387 396 q 223 549 259 488 q 174 667 187 609 q 161 750 161 726 l 161 1097 l 1135 1097 l 1135 910 l 423 910 q 423 742 419 817 q 444 616 427 667 q 495 538 461 566 q 585 514 528 513 l 585 776 l 869 776 l 869 505 q 1135 212 869 260 l 1135 118 q 1124 117 1130 117 q 1112 117 1119 117 q 959 137 1034 117 q 819 193 884 156 q 700 281 754 229 q 606 393 646 331 l 605 396 l 488 396 z "},"ウ":{"ha":1297,"x_min":156,"x_max":1141,"o":"m 1133 1206 l 1133 1089 l 772 1089 l 772 909 l 1141 909 l 1141 476 l 884 476 l 884 727 l 429 727 l 429 481 q 707 142 429 224 q 836 120 768 127 q 974 113 903 113 q 980 113 977 113 q 986 114 983 113 l 986 114 l 986 9 q 255 254 463 9 q 189 368 214 305 q 156 500 163 430 l 156 502 l 156 913 l 528 913 l 528 1093 l 156 1093 l 156 1206 l 1133 1206 z "},"エ":{"ha":1297,"x_min":156,"x_max":1141,"o":"m 779 888 l 779 351 l 1141 351 l 1141 159 l 156 159 l 156 351 l 518 351 l 518 888 l 202 888 l 202 1057 l 1089 1057 l 1089 888 l 779 888 z "},"オ":{"ha":1297,"x_min":155,"x_max":1142,"o":"m 1142 1204 l 1142 1092 l 598 1092 l 598 909 l 1107 909 l 1107 728 l 703 728 q 723 566 705 644 q 772 416 741 488 l 769 423 q 827 316 792 365 q 909 228 864 267 q 1008 161 954 189 q 1122 119 1062 134 l 1126 119 l 1126 22 q 1118 22 1122 22 q 1111 22 1115 22 q 1013 29 1061 22 q 921 52 966 37 l 926 50 q 815 102 868 71 q 720 172 764 133 q 639 258 675 212 q 575 358 602 305 l 574 362 l 544 12 l 293 12 l 293 321 q 332 728 320 395 l 155 728 l 155 909 l 334 909 l 334 1092 l 155 1092 l 155 1204 l 1142 1204 z "},"カ":{"ha":1297,"x_min":160,"x_max":1137,"o":"m 922 802 q 929 557 917 670 q 969 362 941 445 q 1040 231 997 279 q 1137 179 1082 183 l 1137 80 l 1076 80 q 939 134 1013 94 q 798 258 863 175 q 690 472 734 340 q 646 802 646 605 l 454 802 q 417 782 433 799 q 401 742 401 765 q 401 741 401 742 q 401 739 401 739 l 401 739 l 401 307 q 401 304 401 305 q 401 301 401 302 q 416 266 401 281 q 453 251 431 251 q 454 251 453 251 q 454 251 454 251 l 454 251 l 604 251 l 604 80 l 351 80 q 349 80 350 80 q 346 80 347 80 q 214 134 269 80 q 160 266 160 189 q 160 273 160 270 q 160 279 160 277 l 160 279 l 160 972 l 646 972 l 646 1135 l 922 1135 l 922 972 l 1092 972 l 1092 802 l 922 802 z "},"キ":{"ha":1297,"x_min":157,"x_max":1138,"o":"m 572 1134 l 845 1134 l 825 978 l 1138 978 l 1138 803 l 803 803 l 766 528 l 1138 528 l 1138 353 l 746 353 l 711 80 l 438 80 l 473 353 l 157 353 l 157 528 l 495 528 l 532 803 l 157 803 l 157 978 l 555 978 l 572 1134 z "},"ケ":{"ha":1297,"x_min":157,"x_max":1138,"o":"m 1138 1096 l 1138 1204 l 160 1204 l 160 1096 l 662 1096 l 662 911 l 157 911 l 157 722 l 339 722 q 404 267 309 416 q 631 62 498 118 q 891 11 764 5 q 1051 19 1017 15 l 1051 121 q 811 145 899 94 q 676 291 722 197 q 620 502 631 385 q 617 722 610 620 l 738 722 q 830 614 781 663 q 931 534 879 566 q 1036 490 983 503 q 1138 490 1088 477 l 1138 585 q 1063 625 1100 591 q 998 704 1027 658 q 948 803 968 750 q 921 898 926 854 l 921 1096 l 1138 1096 z "},"コ":{"ha":1297,"x_min":153,"x_max":1143,"o":"m 1017 903 l 336 903 l 336 312 l 1143 312 l 1143 118 l 153 118 l 153 1097 l 1017 1097 l 1017 903 z "},"サ":{"ha":1297,"x_min":157,"x_max":1139,"o":"m 952 190 l 952 84 q 926 82 952 84 q 861 80 899 80 q 690 92 766 80 q 553 132 614 106 q 445 198 492 159 q 362 292 399 239 q 292 436 317 357 q 266 602 266 515 q 266 615 266 609 q 267 628 266 621 l 267 627 q 267 628 267 628 q 267 629 267 628 q 268 668 267 648 q 271 708 269 688 l 271 704 l 157 704 l 157 895 l 271 895 l 271 1135 l 533 1135 l 533 895 l 735 895 l 735 1130 l 991 1130 l 991 895 l 1139 895 l 1139 704 l 987 704 l 987 484 l 724 484 l 724 704 l 519 704 q 516 669 517 688 q 515 629 515 650 q 515 623 515 627 q 515 616 515 620 l 515 617 q 547 402 515 492 q 650 256 579 312 q 758 203 699 222 q 884 184 818 184 q 920 186 902 184 q 955 190 937 187 l 952 190 l 952 190 z "},"シ":{"ha":1297,"x_min":140,"x_max":1156,"o":"m 636 1156 l 636 1001 l 1156 1001 l 1156 1156 l 636 1156 m 636 792 l 636 637 l 1156 637 l 1156 792 l 636 792 m 141 854 l 142 910 l 259 910 q 331 595 254 713 q 534 416 407 477 q 826 338 662 354 q 1156 326 989 320 l 1156 62 q 708 102 899 46 q 391 264 517 156 q 202 524 264 372 q 141 854 140 677 l 141 854 z "},"ス":{"ha":1297,"x_min":161,"x_max":1135,"o":"m 617 894 q 886 300 631 463 q 1002 245 939 266 q 1134 222 1065 225 l 1135 222 l 1135 121 q 544 345 764 121 l 397 118 l 161 118 l 161 170 l 391 574 q 355 658 373 595 q 323 799 338 720 q 300 959 309 878 q 292 1097 292 1039 l 1135 1097 l 1135 894 l 617 894 z "},"セ":{"ha":1297,"x_min":156,"x_max":1141,"o":"m 1141 1204 l 1141 1101 l 1023 1101 l 1023 922 l 1141 922 l 1141 719 l 1023 719 l 1023 252 q 977 77 1023 144 q 837 11 930 11 l 156 11 l 156 203 l 648 203 q 779 393 780 203 l 779 719 l 434 719 q 432 692 433 707 q 430 665 431 678 l 430 663 q 471 493 429 559 q 597 411 514 427 l 597 332 q 403 347 484 323 q 267 427 320 373 q 187 559 213 480 q 161 732 161 636 l 161 922 l 779 922 l 779 1101 l 161 1101 l 161 1204 l 1141 1204 z "},"ソ":{"ha":1297,"x_min":142,"x_max":1153,"o":"m 152 1133 l 426 1133 q 431 901 423 1058 q 499 585 441 743 q 684 311 557 427 q 1039 205 808 195 l 1039 84 q 734 110 892 76 q 443 244 575 145 q 227 518 311 343 q 144 966 142 693 l 152 1133 l 152 1133 m 731 612 l 853 1133 l 1153 1133 l 1020 612 l 731 612 z "},"タ":{"ha":1297,"x_min":157,"x_max":1137,"o":"m 974 1114 l 160 1114 l 160 840 q 233 469 157 618 q 437 235 309 321 q 730 121 564 149 q 1069 109 894 91 l 1069 214 q 888 222 968 209 q 749 262 808 237 q 651 319 690 288 q 591 377 612 350 q 578 425 576 397 q 595 458 579 453 l 860 551 l 860 707 l 522 627 q 460 651 472 614 q 449 930 448 688 l 764 930 q 837 800 793 861 q 930 693 880 739 q 1034 620 979 647 q 1137 594 1086 594 l 1137 713 q 1081 769 1109 731 q 1029 859 1053 806 q 989 977 1005 911 q 974 1114 974 1042 z "},"ツ":{"ha":1297,"x_min":159,"x_max":1138,"o":"m 159 1109 l 410 1109 l 410 769 q 743 258 410 382 q 880 221 807 235 q 1031 208 954 208 q 1054 208 1043 208 q 1077 209 1065 209 l 1074 209 l 1074 102 q 273 408 499 102 q 195 550 225 472 q 159 713 165 628 l 159 715 l 159 1109 m 582 1114 l 810 1114 l 747 624 l 521 624 l 582 1114 l 582 1114 m 1074 624 l 849 624 l 911 1114 l 1138 1114 l 1074 624 z "},"テ":{"ha":1297,"x_min":159,"x_max":1138,"o":"m 359 625 l 159 625 l 159 800 l 1138 800 l 1138 627 l 716 627 q 731 434 705 514 q 805 303 755 354 q 924 231 854 252 q 1073 209 994 208 l 1073 110 q 799 132 911 95 q 612 226 685 168 q 500 347 538 283 q 452 450 464 411 q 404 600 416 575 q 359 625 391 625 m 1127 1108 l 1127 937 l 161 937 l 161 1108 l 1127 1108 z "},"ナ":{"ha":1297,"x_min":161,"x_max":1135,"o":"m 387 1134 l 674 1134 l 674 888 l 1135 888 l 1135 700 l 674 700 q 680 576 671 659 q 728 409 688 494 q 850 258 768 324 q 1081 183 933 191 l 1081 85 q 819 107 941 73 q 604 218 697 141 q 454 416 511 296 q 387 699 397 537 l 161 699 l 161 888 l 387 888 l 387 1134 z "},"ニ":{"ha":1297,"x_min":163,"x_max":1134,"o":"m 1134 137 l 163 137 l 163 342 l 1134 342 l 1134 137 m 218 875 l 218 1078 l 1097 1078 l 1097 875 l 218 875 z "},"ヌ":{"ha":1297,"x_min":157,"x_max":1139,"o":"m 891 783 l 891 559 l 655 454 q 753 361 700 403 q 868 287 807 317 q 998 239 929 256 q 1138 220 1066 221 l 1139 218 l 1139 103 q 434 359 704 107 l 157 235 l 157 458 l 301 524 q 243 647 269 583 q 199 779 217 711 q 171 920 180 848 q 161 1065 161 991 q 162 1090 161 1078 q 163 1115 163 1103 l 163 1112 l 1099 1112 l 1099 924 l 471 924 q 496 768 476 842 q 549 627 517 694 l 548 632 l 891 783 z "},"ネ":{"ha":1297,"x_min":159,"x_max":1138,"o":"m 780 1097 q 779 1093 779 1095 q 779 1088 779 1090 q 788 1059 779 1072 q 811 1042 798 1047 l 812 1042 l 1138 1042 l 1138 854 l 509 854 q 549 741 519 793 q 623 650 579 689 l 623 650 q 1138 423 788 479 l 1138 309 q 948 330 1040 313 q 770 376 856 347 l 780 373 l 780 121 l 1138 121 l 1138 12 l 159 12 l 159 121 l 519 121 l 519 430 l 163 271 l 163 475 l 391 582 q 267 719 319 642 q 186 887 214 796 l 186 891 q 167 963 174 925 q 159 1042 160 1001 l 159 1042 l 483 1042 q 511 1056 502 1042 q 519 1101 519 1070 l 519 1203 l 780 1203 l 780 1097 z "},"ハ":{"ha":1297,"x_min":111,"x_max":1185,"o":"m 111 77 l 340 1138 l 609 1138 l 380 77 l 111 77 m 722 1138 q 764 739 722 918 q 869 426 806 559 q 1009 212 933 293 q 1150 104 1084 129 l 1185 293 q 1128 355 1157 319 q 1075 477 1100 392 q 1032 719 1050 563 q 1008 1138 1015 873 l 722 1138 z "},"ヒ":{"ha":1297,"x_min":176,"x_max":1120,"o":"m 176 102 l 764 102 q 903 123 840 102 q 1017 191 968 145 q 1093 309 1065 237 q 1120 483 1120 382 l 1120 1114 l 831 1114 l 831 887 l 176 887 l 176 699 l 823 699 l 823 491 q 767 349 823 415 q 632 283 711 283 l 176 283 l 176 102 z "},"ホ":{"ha":1297,"x_min":127,"x_max":1169,"o":"m 551 1190 l 811 1190 l 811 1038 l 1169 1038 l 1169 860 l 811 860 l 811 134 l 1165 134 l 1165 26 l 127 26 l 127 133 l 266 735 l 473 735 l 473 673 l 355 134 l 551 134 l 551 860 l 193 860 l 193 1036 l 551 1036 l 551 1190 m 1166 183 l 1076 183 q 872 739 872 347 l 1084 738 q 1166 292 1081 363 l 1166 183 z "},"マ":{"ha":1297,"x_min":178,"x_max":1119,"o":"m 178 1077 q 406 395 178 582 q 509 333 452 357 q 629 304 566 309 l 631 304 l 560 138 l 846 138 l 1070 647 l 785 647 l 686 434 q 452 818 452 499 q 455 866 453 842 q 461 911 457 890 l 460 907 l 1119 907 l 1119 1073 l 178 1077 z "},"ミ":{"ha":1297,"x_min":159,"x_max":1138,"o":"m 1138 186 l 159 100 l 159 297 l 1138 399 l 1138 186 m 1138 902 l 159 814 l 159 1012 l 1138 1115 l 1138 902 m 1062 552 l 239 472 l 239 658 l 1062 753 l 1062 552 z "},"ム":{"ha":1297,"x_min":104,"x_max":1191,"o":"m 587 1086 l 869 1086 l 1191 129 l 787 129 l 381 208 l 355 133 l 104 133 l 104 202 l 320 761 l 591 761 l 453 393 l 849 320 l 587 1086 z "},"メ":{"ha":1297,"x_min":157,"x_max":1139,"o":"m 663 620 l 1016 762 l 1016 958 l 613 804 q 593 941 600 868 q 586 1088 586 1013 l 586 1088 l 289 1088 q 288 1064 289 1077 q 288 1038 288 1051 q 302 861 288 947 q 342 693 316 774 l 340 701 l 157 632 l 157 415 l 422 521 q 553 357 477 429 q 722 235 629 285 q 920 156 814 184 q 1139 123 1025 127 l 1139 240 q 977 263 1050 236 q 843 342 902 292 q 739 464 784 393 q 663 620 694 536 l 663 620 z "},"モ":{"ha":1297,"x_min":163,"x_max":1134,"o":"m 646 970 q 667 961 658 970 q 675 940 675 952 l 675 940 l 675 829 q 675 827 675 829 q 675 823 675 826 q 667 802 675 811 q 646 791 658 792 l 646 791 l 163 791 l 163 616 l 646 616 q 665 608 656 616 q 675 581 674 601 l 675 396 q 644 323 673 354 q 575 286 616 293 l 575 286 l 163 286 l 163 103 l 751 103 q 889 193 844 103 q 935 365 935 282 l 935 605 l 1134 605 l 1134 784 l 935 784 l 935 974 l 1118 974 l 1118 1112 l 163 1112 l 163 970 l 646 970 z "},"ヤ":{"ha":1297,"x_min":117,"x_max":1180,"o":"m 117 1057 l 760 1057 l 768 1141 l 1036 1141 l 1025 1058 l 1180 1058 l 1180 869 l 1005 869 l 922 183 l 1180 183 l 1180 75 l 216 75 l 216 182 l 666 182 l 736 869 l 414 869 q 412 861 412 865 q 412 850 412 856 q 427 736 412 791 q 469 634 442 682 q 532 547 495 586 q 614 476 570 506 l 617 476 l 617 387 q 404 430 496 382 q 247 568 311 479 q 149 781 183 656 q 117 1057 117 907 l 117 1057 z "},"ヨ":{"ha":1297,"x_min":153,"x_max":1143,"o":"m 1143 1135 l 1143 80 l 153 80 l 153 1135 l 1143 1135 m 336 977 l 336 666 l 960 666 l 960 977 l 336 977 m 960 239 l 960 549 l 336 549 l 336 239 l 960 239 z "},"ラ":{"ha":1297,"x_min":164,"x_max":1133,"o":"m 844 127 q 283 336 481 127 q 212 432 243 380 q 165 543 182 484 l 164 547 l 164 804 l 1133 804 l 1133 625 l 438 625 q 458 517 441 570 q 508 422 477 465 q 579 345 538 378 q 670 289 621 311 l 673 288 q 758 260 707 271 q 867 241 811 248 q 979 229 924 233 q 1073 225 1034 225 l 1073 127 l 844 127 m 1077 1088 l 1077 933 l 205 933 l 205 1088 l 1077 1088 z "},"リ":{"ha":1297,"x_min":164,"x_max":1131,"o":"m 1131 552 l 840 552 l 840 1134 l 1131 1134 l 1131 552 m 457 682 q 484 446 457 538 q 576 301 511 354 q 749 228 640 248 q 1016 208 856 208 l 1046 104 q 627 95 795 61 q 355 212 457 127 q 209 422 252 297 q 164 682 164 545 l 164 1134 l 457 1134 l 457 682 z "},"ワ":{"ha":1297,"x_min":123,"x_max":1173,"o":"m 426 917 q 434 551 400 682 q 545 354 467 420 q 741 267 624 288 q 998 235 857 247 l 998 129 q 564 180 734 121 q 296 331 393 240 q 161 525 198 422 q 123 708 123 628 l 123 1086 l 1173 1086 l 1173 646 l 917 647 l 917 917 l 426 917 z "},"ー":{"ha":1297,"x_min":187,"x_max":1109,"o":"m 1109 524 l 1109 692 l 187 692 l 187 524 l 1109 524 z "},"꞊":{"ha":1297,"x_min":389,"x_max":907,"o":"m 907 361 l 389 361 l 389 530 l 907 530 l 907 361 m 389 686 l 389 853 l 907 853 l 907 688 l 389 686 z "},"":{"ha":1297,"x_min":418,"x_max":878,"o":"m 418 903 l 878 903 l 878 667 l 418 667 l 418 903 m 878 548 l 878 312 l 418 312 l 418 548 l 878 548 z "}}}
